<?xml version="1.0" encoding="UTF-8"?>
<svg id="Layer_1" data-name="Layer 1" xmlns="http://www.w3.org/2000/svg" viewBox="0 0 1443.39 276.4">
  <defs>
    <style>
      .cls-1, .cls-2, .cls-3, .cls-4 {
        stroke-width: 0px;
      }

      .cls-2 {
        fill: #8d0e57;
      }

      .cls-3 {
        fill: #fff;
      }

      .cls-4 {
        fill: #fe3b1f;
      }
    </style>
  </defs>
  <g id="_3DhfV6.tif" data-name="3DhfV6.tif">
    <g>
      <path class="cls-3" d="M129.15,74.3c.71-.04,1.66-.15,2.62-.15,10.08-.01,20.16-.08,30.24.04,2.26.03,2.82-.72,2.8-2.86-.09-9.83-.04-19.66-.04-29.49,0-3.82,0-3.83-3.73-3.83-39.41,0-78.82,0-118.23,0-.68,0-1.35.13-2.03.2.25-.13.5-.26.75-.39,62.36,62.53,124.71,125.05,187.05,187.56.02-.24.1-.64.1-1.04-.01-39.83-.04-79.65-.01-119.48,0-1.9-.44-2.62-2.49-2.6-10.58.09-21.16.04-31.74.05-.63,0-1.27.16-2.25.29v34.79c-21.09-21.1-42.04-42.07-63.05-63.1ZM30.55,48.33c-.12.94-.28,1.57-.28,2.2-.01,15.5-.04,31,.06,46.5,0,1.16.71,2.57,1.55,3.42,13.59,13.73,27.25,27.39,40.92,41.05,18.44,18.43,36.9,36.84,55.34,55.27.71.71,1.27,1.56,2.25,2.79-1.95.09-3.25.21-4.56.21-9.08.01-18.17.06-27.25-.04-2.21-.03-2.84.68-2.81,2.87.11,9.91.06,19.83.06,29.75,0,3.81,0,3.86,3.75,3.86,38.58,0,77.16,0,115.74-.02.95,0,1.89-.1,2.5-.13C155.48,173.57,93.17,111.1,30.55,48.33ZM31.42,118.24c-.4.25-.79.49-1.19.74v2.66c0,12.99,0,25.98,0,38.97,0,24.32,0,48.63-.02,72.95,0,1.67.05,2.77,2.32,2.76,15.82-.09,31.64-.06,47.47-.01,1.58,0,2.24-.41,2.23-2.09-.05-10.83-.04-21.65,0-32.48,0-1.5-.52-2.08-2.03-2.05-3.16.07-6.33.01-9.49,0q-3.99,0-3.99-3.88c0-13.07.03-26.15-.07-39.22-.01-1.25-.6-2.81-1.47-3.69-8.51-8.67-17.16-17.2-25.7-25.85-2.79-2.83-5.37-5.87-8.05-8.81ZM228.83,63.11c0-7.66-.04-15.33.03-22.99.01-1.7-.5-2.36-2.27-2.35-15.24.05-30.49.03-45.73,0-1.54,0-2.26.44-2.25,2.13.05,10.75.05,21.49,0,32.24,0,1.64.61,2.2,2.2,2.16,3.08-.08,6.17.02,9.25-.04,1.6-.04,2.25.57,2.22,2.2-.07,3.16.07,6.33-.06,9.49-.08,1.92.49,2.65,2.51,2.63,10.58-.08,21.16-.07,31.74,0,1.85.01,2.45-.6,2.42-2.46-.09-7.66-.04-15.33-.04-22.99Z"/>
      <path class="cls-2" d="M129.15,74.3c21.01,21.02,41.96,41.99,63.05,63.1v-34.79c.98-.13,1.61-.29,2.25-.29,10.58-.01,21.16.04,31.74-.05,2.04-.02,2.49.7,2.49,2.6-.03,39.83,0,79.65.01,119.48,0,.4-.07.8-.1,1.04-62.33-62.5-124.69-125.03-187.05-187.56-.25.13-.5.26-.75.39.68-.07,1.35-.2,2.03-.2,39.41,0,78.82,0,118.23,0,3.73,0,3.73.01,3.73,3.83,0,9.83-.05,19.66.04,29.49.02,2.14-.55,2.88-2.8,2.86-10.08-.12-20.16-.05-30.24-.04-.95,0-1.9.11-2.62.15Z"/>
      <path class="cls-4" d="M30.55,48.33c62.62,62.77,124.93,125.24,187.26,187.72-.61.03-1.55.13-2.5.13-38.58.01-77.16.02-115.74.02-3.75,0-3.75-.04-3.75-3.86,0-9.92.06-19.83-.06-29.75-.02-2.19.6-2.89,2.81-2.87,9.08.11,18.16.06,27.25.04,1.31,0,2.61-.12,4.56-.21-.98-1.23-1.54-2.08-2.25-2.79-18.44-18.43-36.9-36.84-55.34-55.27-13.66-13.66-27.32-27.32-40.92-41.05-.84-.84-1.54-2.26-1.55-3.42-.1-15.5-.07-31-.06-46.5,0-.63.16-1.26.28-2.2Z"/>
      <path class="cls-1" d="M31.42,118.24c2.68,2.94,5.25,5.99,8.05,8.81,8.54,8.64,17.2,17.17,25.7,25.85.87.88,1.46,2.44,1.47,3.69.11,13.07.07,26.15.07,39.22q0,3.88,3.99,3.88c3.16,0,6.33.06,9.49,0,1.51-.03,2.04.55,2.03,2.05-.04,10.83-.05,21.65,0,32.48,0,1.68-.65,2.09-2.23,2.09-15.82-.05-31.65-.08-47.47.01-2.28.01-2.33-1.09-2.32-2.76.03-24.32.02-48.63.02-72.95,0-12.99,0-25.98,0-38.97v-2.66c.4-.25.79-.49,1.19-.74Z"/>
      <path class="cls-1" d="M228.83,63.11c0,7.66-.05,15.33.04,22.99.02,1.86-.57,2.47-2.42,2.46-10.58-.06-21.16-.07-31.74,0-2.02.02-2.59-.71-2.51-2.63.13-3.16-.01-6.33.06-9.49.04-1.63-.62-2.23-2.22-2.2-3.08.07-6.17-.03-9.25.04-1.59.04-2.2-.51-2.2-2.16.05-10.75.05-21.49,0-32.24,0-1.69.71-2.13,2.25-2.13,15.24.03,30.49.05,45.73,0,1.78,0,2.29.65,2.27,2.35-.06,7.66-.03,15.33-.03,22.99Z"/>
    </g>
  </g>
  <path class="cls-2" d="M805.71,60.38c-5.25-6.22-11.2-11.27-17.99-15.24-8-4.68-16.65-7.5-25.9-8.49-17.42-1.86-33.67,1.16-48.18,11.46-8.84,6.27-15.89,14.14-20.82,23.82-6.09,11.95-7.52,24.71-6.45,37.9,1.01,12.4,5.37,23.52,13.01,33.23,7.85,9.98,17.86,17.33,30.05,21.02,18.39,5.56,36.61,5.51,54.08-3.67,8.26-4.34,15.31-10.19,21.76-17.83-6.65-6.12-13.22-12.17-19.85-18.28.24-.23-.03-.02-.23.23-7.24,8.85-16.53,13.91-27.87,15.47-15.16,2.09-30.64-5.96-37.07-19.42-3.13-6.55-4.15-13.42-3.99-20.63.51-22.84,19.98-37.22,40.83-35.65,11.67.88,21.11,6.06,28.61,14.95.5.59,1.12,1.08,1.81,1.74,6.16-6.97,12.11-13.7,18.2-20.59Z"/>
  <path class="cls-2" d="M910.42,117.09c.32-16.52-7.5-31.54-20.98-41.23-8.37-6.01-17.74-8.97-27.94-9.47-14.02-.69-26.76,2.92-37.52,12.14-16.04,13.73-21.76,35.88-14.7,55.83,4.11,11.63,11.58,20.51,22.24,26.58,14.15,8.05,29.26,8.78,44.47,4.17,19.58-5.94,35.01-24.87,34.44-48.02ZM872.38,138.83c-6.72,5.43-18.55,6.17-25.87,1.49-14.21-9.07-15.79-33.49-2.85-44.27,12.51-10.42,31.79-5.67,37.06,11.87.9,2.99,1.05,6.2,1.55,9.31-.31,8.66-3,16.02-9.89,21.59Z"/>
  <path class="cls-2" d="M1023.04,166.11c.84.06,1.4.13,1.96.13,7.75,0,15.5-.12,23.24.06,2.62.06,3.16-.78,3.15-3.25-.08-17.91-.11-35.82.07-53.73.08-7.44,3.22-13.41,9.69-17.57,9.19-5.92,20.82-2.44,24.14,7.72,1.16,3.57,1.51,7.53,1.54,11.31.16,17.49.12,34.99.02,52.48-.01,2.44.67,3.07,3.06,3.02,7.49-.16,15-.12,22.49-.01,2.13.03,2.88-.49,2.87-2.77-.09-18.83.04-37.66-.1-56.48-.03-4.13-.44-8.34-1.38-12.35-2.27-9.7-7.37-17.76-16.06-22.88-14.82-8.74-30.71-7.09-44,4.09-.52.44-1.12.79-2.38,1.67,0-2.86-.12-4.99.03-7.09.13-1.87-.53-2.48-2.39-2.46-7.83.08-15.66.1-23.49,0-2.02-.03-2.51.67-2.51,2.59.06,30.66.05,61.32.05,91.97,0,1.14,0,2.29,0,3.54Z"/>
  <path class="cls-2" d="M946.95,77.54c0-2.85-.07-4.98.02-7.1.07-1.63-.37-2.44-2.21-2.42-8.08.06-16.16.05-24.24,0-1.54,0-2.02.59-1.98,2.09.1,3.16.06,6.33.06,9.5,0,27.74,0,55.48,0,83.23,0,3.32,0,3.36,3.19,3.37,7.5.03,15-.04,22.49.07,2.06.03,2.73-.61,2.71-2.69-.1-8.66-.06-17.33-.04-25.99.02-9.91-.18-19.84.18-29.74.41-11.24,9.16-19.15,20.18-18.74,6.18.23,10.86,2.98,12.71,9.01,1.2,3.92,2.06,8.11,2.11,12.19.22,17.66.13,35.32.04,52.98-.01,2.26.53,3.05,2.89,3.01,7.83-.14,15.66-.05,23.49-.07.56,0,1.12-.11,1.8-.19.05-.85.12-1.59.12-2.32,0-18.83.08-37.66-.08-56.48-.04-4.37-.43-8.85-1.48-13.08-3.67-14.81-13.2-24.13-28.07-27.21-11.48-2.37-21.94.82-31.01,8.32-.74.61-1.51,1.18-2.9,2.26Z"/>
  <path class="cls-2" d="M1311.46,103.18c.5-.2.71-.22.8-.33,4.58-5.92,9.19-11.83,13.67-17.82.3-.41-.01-1.8-.49-2.18-3.75-3.01-7.35-6.36-11.49-8.73-12.52-7.16-26-9.68-40.22-6.53-11.4,2.52-21.08,8.25-28.68,17.11-7.97,9.29-11.43,20.27-11.46,32.48-.02,9.56,1.93,18.63,7.09,26.66,10.4,16.17,25.79,23.53,44.69,23.9,16.6.32,29.73-7.31,41.13-18.62.96-.95,1.01-1.76.09-2.77-2.07-2.29-4.05-4.65-6.11-6.94-3.15-3.5-6.33-6.96-9.97-10.96-.37.76-.49,1.19-.75,1.51-3.38,4.21-7.48,7.54-12.26,10.07-9.93,5.26-24.14,2.09-30.99-6.78-4.12-5.34-5.12-11.35-5.02-17.86.26-17.71,17.7-27.01,32.17-23.11,7.01,1.89,13.11,5.23,17.8,10.92Z"/>
  <path class="cls-2" d="M1396.51,135.83c-1.68,1.59-3.06,3.18-4.71,4.41-3.56,2.68-7.68,3.55-11.79,1.84-4.3-1.79-5.53-5.76-5.54-10.1-.04-13.58.01-27.16-.05-40.74,0-1.87.62-2.43,2.46-2.4,6.08.1,12.16-.04,18.24.09,2.12.04,2.7-.69,2.66-2.73-.11-5.25-.09-10.5.01-15.74.04-1.84-.57-2.48-2.43-2.45-6.08.1-12.16-.03-18.24.08-2.09.04-2.73-.71-2.7-2.75.09-7.83.05-15.66.04-23.49,0-.95-.13-1.91-.21-2.95-8.72,0-17.13.07-25.54-.05-2.24-.03-2.85.74-2.81,2.88.12,7.41.06,14.83.06,22.24q0,4.09-4.2,4.07c-1.75,0-3.5.05-5.25-.04-1.52-.07-2.07.55-2.05,2.05.05,5.58.07,11.16,0,16.75-.02,1.7.7,2.15,2.25,2.1,2.41-.08,4.83,0,7.25-.04,1.35-.03,2.04.47,1.99,1.88-.04,1.16,0,2.33.01,3.5.07,14.49-.23,29,.34,43.48.5,12.7,7.28,22.1,18.78,27,15.18,6.47,29.01,2.71,41.11-8.05.46-.41.67-1.72.38-2.28-3.25-6.18-6.63-12.29-10.05-18.56Z"/>
  <path class="cls-2" d="M805.71,60.38c-6.09,6.89-12.03,13.62-18.2,20.59-.69-.66-1.31-1.15-1.81-1.74-7.5-8.89-16.93-14.07-28.61-14.95-20.85-1.57-40.32,12.81-40.83,35.65-.16,7.21.87,14.08,3.99,20.63,6.43,13.46,21.91,21.51,37.07,19.42,11.34-1.56,20.63-6.62,27.87-15.47.21-.25.47-.46.23-.23,6.63,6.11,13.2,12.16,19.85,18.28-6.45,7.65-13.51,13.49-21.76,17.83-17.47,9.19-35.69,9.24-54.08,3.67-12.18-3.68-22.19-11.04-30.05-21.02-7.64-9.71-12-20.83-13.01-33.23-1.07-13.2.36-25.95,6.45-37.9,4.93-9.68,11.98-17.55,20.82-23.82,14.51-10.29,30.76-13.32,48.18-11.46,9.24.99,17.9,3.81,25.9,8.49,6.79,3.98,12.74,9.03,17.99,15.24Z"/>
  <path class="cls-2" d="M1224.23,106.75c-.85-12.38-6.21-22.44-16.16-30-8.41-6.4-17.93-9.81-28.42-10.29-20.07-.93-36.24,6.55-46.99,23.7-7.03,11.22-8.22,23.89-6.08,36.86,2.85,17.21,12.22,29.77,28.26,36.31,18,7.34,35.87,6.08,52.69-4.19,3.34-2.04,6.28-4.75,9.58-7.28-5.6-6.04-10.79-11.64-16.06-17.33-9.57,7.38-11.47,8.28-19.55,9.38-11.02,1.5-21.62-3.43-26.18-12.18-1.91-3.67-1.57-4.26,2.45-4.26,21.33,0,42.66-.02,63.99.06,2.16,0,2.95-.56,2.86-2.8-.23-5.99,0-12.01-.4-17.98ZM1193.03,106.89c-5.91.02-11.82,0-17.74,0-6.08,0-12.16-.03-18.24.02-1.95.02-2.64-.74-1.96-2.59,3.13-8.58,9.76-12.92,18.34-14.17,8.2-1.2,15.14,1.53,19.78,8.75.97,1.51,1.55,3.31,2.04,5.06.73,2.64.46,2.91-2.22,2.92Z"/>
  <path class="cls-2" d="M1023.04,166.11c0-1.26,0-2.4,0-3.54,0-30.66,0-61.32-.05-91.97,0-1.92.49-2.62,2.51-2.59,7.83.1,15.66.08,23.49,0,1.86-.02,2.52.59,2.39,2.46-.15,2.11-.03,4.23-.03,7.09,1.26-.88,1.86-1.23,2.38-1.67,13.28-11.18,29.18-12.82,44-4.09,8.68,5.12,13.79,13.18,16.06,22.88.94,4.01,1.35,8.22,1.38,12.35.14,18.83.01,37.66.1,56.48.01,2.28-.74,2.8-2.87,2.77-7.5-.11-15-.15-22.49.01-2.4.05-3.08-.58-3.06-3.02.1-17.49.14-34.99-.02-52.48-.03-3.79-.38-7.75-1.54-11.31-3.32-10.17-14.95-13.64-24.14-7.72-6.46,4.16-9.61,10.13-9.69,17.57-.18,17.91-.15,35.82-.07,53.73.01,2.47-.53,3.31-3.15,3.25-7.74-.18-15.49-.06-23.24-.06-.56,0-1.12-.07-1.96-.13Z"/>
  <path class="cls-2" d="M946.95,77.54c1.38-1.08,2.16-1.65,2.9-2.26,9.07-7.5,19.53-10.7,31.01-8.32,14.86,3.07,24.4,12.4,28.07,27.21,1.05,4.23,1.44,8.71,1.48,13.08.16,18.83.08,37.66.08,56.48,0,.73-.08,1.47-.12,2.32-.69.07-1.25.19-1.8.19-7.83.01-15.66-.07-23.49.07-2.36.04-2.9-.75-2.89-3.01.09-17.66.18-35.32-.04-52.98-.05-4.08-.9-8.27-2.11-12.19-1.85-6.04-6.54-8.78-12.71-9.01-11.01-.41-19.76,7.5-20.18,18.74-.36,9.9-.16,19.82-.18,29.74-.02,8.66-.06,17.33.04,25.99.02,2.08-.65,2.72-2.71,2.69-7.5-.11-14.99-.04-22.49-.07-3.19-.01-3.19-.05-3.19-3.37,0-27.74,0-55.48,0-83.23,0-3.17.04-6.33-.06-9.5-.05-1.5.44-2.1,1.98-2.09,8.08.04,16.16.06,24.24,0,1.84-.01,2.27.8,2.21,2.42-.09,2.12-.02,4.25-.02,7.1Z"/>
  <path class="cls-2" d="M1311.46,103.18c-4.69-5.68-10.79-9.03-17.8-10.92-14.46-3.89-31.91,5.41-32.17,23.11-.09,6.51.9,12.53,5.02,17.86,6.85,8.87,21.07,12.04,30.99,6.78,4.78-2.53,8.88-5.86,12.26-10.07.26-.32.38-.76.75-1.51,3.64,4,6.83,7.46,9.97,10.96,2.06,2.29,4.04,4.65,6.11,6.94.91,1.01.87,1.82-.09,2.77-11.41,11.31-24.53,18.94-41.13,18.62-18.9-.36-34.29-7.72-44.69-23.9-5.16-8.03-7.12-17.1-7.09-26.66.03-12.2,3.5-23.19,11.46-32.48,7.6-8.86,17.28-14.59,28.68-17.11,14.22-3.15,27.7-.63,40.22,6.53,4.14,2.37,7.74,5.71,11.49,8.73.47.38.79,1.78.49,2.18-4.48,5.99-9.09,11.9-13.67,17.82-.09.11-.3.13-.8.33Z"/>
  <path class="cls-2" d="M1396.51,135.83c3.42,6.27,6.8,12.39,10.05,18.56.3.56.09,1.87-.38,2.28-12.11,10.76-25.93,14.53-41.11,8.05-11.5-4.9-18.28-14.31-18.78-27-.57-14.47-.26-28.98-.34-43.48,0-1.17-.05-2.33-.01-3.5.04-1.41-.64-1.91-1.99-1.88-2.42.05-4.83-.04-7.25.04-1.55.05-2.28-.4-2.25-2.1.07-5.58.05-11.16,0-16.75-.01-1.5.54-2.12,2.05-2.05,1.75.08,3.5.03,5.25.04q4.2.02,4.2-4.07c0-7.41.05-14.83-.06-22.24-.03-2.15.58-2.91,2.81-2.88,8.41.11,16.82.05,25.54.05.08,1.04.21,1.99.21,2.95.01,7.83.06,15.66-.04,23.49-.02,2.04.61,2.79,2.7,2.75,6.08-.11,12.16.01,18.24-.08,1.86-.03,2.47.6,2.43,2.45-.1,5.25-.13,10.5-.01,15.74.04,2.04-.53,2.77-2.66,2.73-6.08-.13-12.16,0-18.24-.09-1.84-.03-2.47.53-2.46,2.4.06,13.58.01,27.16.05,40.74.01,4.34,1.24,8.31,5.54,10.1,4.12,1.71,8.23.84,11.79-1.84,1.64-1.24,3.03-2.82,4.71-4.41Z"/>
  <path class="cls-4" d="M520.65,76.85c1.11-.73,1.68-1.04,2.18-1.44,13.4-10.67,28.13-12.22,43.33-5.05,16.49,7.79,25.09,21.6,26.83,39.61,1.27,13.13-.72,25.73-8.4,36.74-10.12,14.5-23.47,22.96-41.97,20.66-7.45-.92-13.78-4.21-19.2-9.34-.7-.66-1.46-1.27-2.18-1.9l-.87.18c0,2.17.01,4.34,0,6.51-.02,3.52-.03,3.53-3.63,3.54-7.33,0-14.66-.07-21.99.03-2.17.03-2.89-.67-2.89-2.86.05-43.23.05-86.46,0-129.69,0-2.01.58-2.79,2.69-2.77,7.58.1,15.16.15,22.74-.02,2.66-.06,3.16.96,3.14,3.36-.1,12.91-.06,25.82-.04,38.73,0,1.04.15,2.08.27,3.7ZM519.81,117.01c.46,3.12.58,6.34,1.44,9.35,2.24,7.81,6.92,13.77,14.94,16.11,8.24,2.4,15.43.04,21.37-6.17,10.35-10.8,9.17-31.39-2.36-40.94-7.46-6.18-16.82-6.74-24.64-1.05-7.61,5.54-10.47,13.49-10.75,22.7Z"/>
  <path class="cls-4" d="M376.38,119.1c-.31-27.19,17.5-48.41,42.93-52.19,16.61-2.47,31.8,1.12,44.67,12.53,20.24,17.96,21.14,49.02,6.79,67.94-11.43,15.07-27.04,21.21-45.71,20.33-16.84-.8-30.23-7.98-40.04-21.63-6.14-8.53-8.71-18.25-8.64-26.98ZM451.88,115.41c-.43-1.91-1-5.79-2.19-9.47-3.05-9.46-11.85-15.38-22.04-15.16-9.68.21-18.23,6.75-21.06,15.95-2.11,6.89-2.14,13.71-.08,20.64,4.31,14.5,22.69,20.84,34.93,11.98,7.48-5.42,10.05-13.14,10.44-23.94Z"/>
  <path class="cls-4" d="M301,128.3c2.32,2.06,4.28,3.98,6.42,5.68,4.31,3.41,9.12,5.84,14.65,6.53,8,.99,13.85-2.96,15.81-10.81.56-2.24.79-4.61.79-6.92.06-18.42-.01-36.83.08-55.25.01-2.47-.85-3.11-3.18-3.09-10.42.1-20.83-.01-31.25.09-2.29.02-3.05-.71-3.01-3,.12-6.66.1-13.33,0-20-.03-2.05.65-2.76,2.74-2.75,20.75.05,41.5.04,62.25,0,1.75,0,2.3.6,2.29,2.33-.07,27.91.05,55.83-.18,83.74-.07,9.27-2.05,18.27-7.46,26.06-6.67,9.61-16.2,14.74-27.64,16.1-17.52,2.08-32.72-3.08-45.53-15.29-1.68-1.6-2.1-2.77-.57-4.77,4.08-5.37,7.94-10.91,11.9-16.37.53-.73,1.16-1.39,1.9-2.27Z"/>
  <path class="cls-4" d="M673.65,78.01c-3.66,6.44-6.99,12.29-10.31,18.14-.82,1.45-1.69.77-2.67.17-5.2-3.21-10.56-6.3-16.72-6.9-4.66-.45-9.43-.12-14.12.24-2.23.17-3.97,1.71-4.41,4.17-.47,2.65.68,4.74,2.96,5.79,4.14,1.9,8.39,3.61,12.69,5.15,7.75,2.77,15.71,4.89,22.86,9.24,6.1,3.71,9.52,8.96,10.54,15.84,3.12,21.09-10.36,34.36-28.35,37.11-18.82,2.88-35.98-2.04-51.47-13.01-1.86-1.32-2.34-2.35-.82-4.37,3.31-4.38,6.36-8.96,9.53-13.44.47-.66,1.04-1.25,1.5-1.79,4.14,2.39,7.98,4.89,12.07,6.89,6.28,3.06,13.02,4.6,20.03,4.68,1.57.02,3.19-.12,4.71-.5,2.82-.71,5.45-1.91,6.25-5.07.84-3.34-1.19-5.63-3.72-6.95-4.26-2.22-8.7-4.17-13.25-5.72-7.19-2.45-14.15-5.24-20.72-9.18-11.52-6.9-13.08-19.24-10.57-28.72,2.78-10.51,10.28-16.7,20.03-20.33,13.44-5.02,26.84-4.22,39.92,1.41,4.69,2.02,9.14,4.63,14.04,7.15Z"/>
  <g>
    <path class="cls-1" d="M295.47,237.65h-9.33v-41.02h9.41l12.57,19.59,12.66-19.59h9.41v41.02h-9.33v-26.12l-9.83,15.52h-5.66l-9.91-15.52v26.12Z"/>
    <path class="cls-1" d="M344.77,237.65h-10.16l15.32-41.02h10.82l15.15,41.02h-10.16l-2.33-6.99h-16.32l-2.33,6.99ZM349.43,223.75h11.66l-5.83-17.13-5.83,17.13Z"/>
    <path class="cls-1" d="M391.48,237.65h-9.33v-41.02h9.33l16.57,25.73v-25.73h9.41v41.02h-9.41l-16.57-25.73v25.73Z"/>
    <path class="cls-1" d="M436.69,237.65h-9.24v-41.02h16.24c4.66,0,8.33,1.31,11.16,3.76,2.91,2.53,4.25,5.91,4.25,9.99s-1.33,7.53-4.25,10.06c-2.83,2.53-6.49,3.84-11.16,3.84h-6.99v13.37ZM436.69,216.29h6.58c3.75,0,6.16-2.38,6.16-5.91s-2.42-5.76-6.16-5.76h-6.58v11.68Z"/>
    <path class="cls-1" d="M471.08,232.5c-4-3.99-6-9.22-6-15.67s2-11.6,6-15.44c4-3.92,9.24-5.91,15.74-5.91s11.74,2,15.74,5.91c4,3.84,6,9.06,6.08,15.44.08,6.45-1.92,11.68-5.91,15.67-4,3.92-9.24,5.84-15.9,5.84s-11.74-1.92-15.74-5.84ZM474.91,216.99c0,3.84,1.08,6.99,3.25,9.37,2.25,2.46,5.16,3.61,8.74,3.61s6.41-1.15,8.58-3.61c2.25-2.38,3.25-5.53,3.25-9.37s-1-7.14-3.25-9.52c-2.17-2.38-5-3.61-8.58-3.53-7.16.15-11.99,5.3-11.99,13.06Z"/>
    <path class="cls-1" d="M521.46,237.65l-12.57-41.02h9.99l7.66,27.11,8.91-27.11h7.74l9.16,26.81,7.41-26.81h10.08l-12.49,41.02h-8.99l-8.91-25.81-8.91,25.81h-9.08Z"/>
    <path class="cls-1" d="M603.31,237.65h-28.39v-41.02h27.56v7.99h-18.15v8.76h16.57v7.6h-16.57v8.68h18.98v7.99Z"/>
    <path class="cls-1" d="M617.8,237.65h-9.33v-41.02h17.15c4.75,0,8.49,1.31,11.32,3.76,2.91,2.53,4.25,5.91,4.25,9.99,0,5.45-2.66,9.75-7.41,11.98l9.08,15.29h-10.16l-7.74-13.37h-7.16v13.37ZM617.8,216.29h7.41c3.91,0,6.41-2.38,6.41-5.91s-2.66-5.76-6.41-5.76h-7.41v11.68Z"/>
    <path class="cls-1" d="M673.09,237.65h-10.16l15.32-41.02h10.82l15.15,41.02h-10.16l-2.33-6.99h-16.32l-2.33,6.99ZM677.76,223.75h11.66l-5.83-17.13-5.83,17.13Z"/>
    <path class="cls-1" d="M712.98,232.5c-4.08-3.92-6.16-9.14-6.16-15.59s2.08-11.6,6.33-15.52c4.25-3.99,9.83-5.99,16.82-5.99,6,0,11.74,1.84,17.32,5.53l-3.75,7.3c-4.41-3-8.83-4.46-13.24-4.46s-7.66,1.23-10.24,3.61c-2.58,2.46-3.83,5.61-3.83,9.45s1.25,7.22,3.75,9.6c2.66,2.46,6,3.61,10.24,3.61,3.08,0,6.08-.85,8.83-2.38v-11.52h8.66v15.52c-2.17,2.07-4.83,3.69-8.24,4.92-3.33,1.23-6.66,1.77-10.08,1.77-6.74,0-12.24-1.92-16.4-5.84Z"/>
    <path class="cls-1" d="M783.59,237.65h-28.39v-41.02h27.56v7.99h-18.15v8.76h16.57v7.6h-16.57v8.68h18.98v7.99Z"/>
    <path class="cls-1" d="M801.41,237.65h-9.33v-41.02h9.33l16.57,25.73v-25.73h9.41v41.02h-9.41l-16.57-25.73v25.73Z"/>
    <path class="cls-1" d="M840.88,232.5c-4.16-3.99-6.16-9.22-6.16-15.67s2-11.68,6.16-15.59c4.16-3.92,9.58-5.91,16.4-5.91,5.08,0,11.82,2.23,16.74,5.61l-3.83,7.22c-3.66-2.69-8.49-4.46-12.24-4.46-4.16,0-7.49,1.23-10.16,3.61-2.58,2.46-3.83,5.61-3.83,9.52s1.25,7.22,3.83,9.6c2.58,2.38,6,3.61,10.16,3.61,3.75,0,8.58-1.77,12.24-4.46l3.83,7.22c-2.5,1.61-5.25,3-8.33,3.99-3,1.08-5.83,1.54-8.41,1.54-6.83,0-12.24-1.92-16.4-5.84Z"/>
    <path class="cls-1" d="M889.67,221.59l-15.24-24.96h10.49l9.49,16.51,9.74-16.51h10.49l-15.65,25.04v15.98h-9.33v-16.05Z"/>
    <path class="cls-1" d="M922.48,233.96l-3.58,14.06h-4.75v-5.99h-2.91v-8.07h11.24Z"/>
    <path class="cls-1" d="M953.04,237.65h-9.41v-41.02h9.41v41.02Z"/>
    <path class="cls-1" d="M969.02,237.65h-9.33v-41.02h9.33l16.57,25.73v-25.73h9.41v41.02h-9.41l-16.57-25.73v25.73Z"/>
    <path class="cls-1" d="M1008.49,232.5c-4.16-3.99-6.16-9.22-6.16-15.67s2-11.68,6.16-15.59c4.16-3.92,9.58-5.91,16.4-5.91,5.08,0,11.82,2.23,16.74,5.61l-3.83,7.22c-3.66-2.69-8.49-4.46-12.24-4.46-4.16,0-7.49,1.23-10.16,3.61-2.58,2.46-3.83,5.61-3.83,9.52s1.25,7.22,3.83,9.6c2.58,2.38,6,3.61,10.16,3.61,3.75,0,8.58-1.77,12.24-4.46l3.83,7.22c-2.5,1.61-5.25,3-8.33,3.99-3,1.08-5.83,1.54-8.41,1.54-6.83,0-12.24-1.92-16.4-5.84Z"/>
    <path class="cls-1" d="M1053.29,229.58v8.07h-9.16v-8.07h9.16Z"/>
  </g>
</svg>